<svg width="25" height="24" viewBox="0 0 25 24" fill="none" xmlns="http://www.w3.org/2000/svg">
<path d="M11.9796 16.0187C11.7319 15.8027 11.5292 15.3568 11.5292 15.0277V3.59787C11.5292 3.26901 11.2605 3 10.932 3H10.166C9.8375 3 9.56879 3.269 9.56879 3.59787L9.56866 15.0274C9.56866 15.3565 9.35791 15.7925 9.10046 15.9968C9.10046 15.9968 8 16.8692 8 17.6941C8 18.9676 9.11939 20 10.5002 20C11.8807 20 13 18.9674 13 17.6941C13 16.9088 11.9796 16.0187 11.9796 16.0187Z" fill="black"/>
<path d="M11.3862 6.35846C11.3862 6.691 11.1142 6.96302 10.7816 6.96302H10.5168C10.1843 6.96302 9.91224 6.69101 9.91224 6.35846L9.91211 3.86726C9.91211 3.53471 10.1841 3.2627 10.5167 3.2627H10.7815C11.114 3.2627 11.386 3.5347 11.386 3.86726L11.3862 6.35846Z" fill="black"/>
<path d="M18 8.50011C18 9.88124 16.8816 11 15.4998 11C14.1181 11 13 9.88157 13 8.50011L15.4662 4L18 8.50011Z" fill="black"/>
<path d="M20 12.5851C19.9916 13.3745 19.3144 14.0076 18.4848 13.9999C17.6572 13.9929 16.9917 13.3477 17.0001 12.558L18.5056 10L20 12.5851Z" fill="black"/>
<path d="M15 13.939C14.9951 14.5309 14.5429 15.006 13.9907 14.9999C13.4388 14.9943 12.994 14.5104 13.0001 13.9189L14.005 12L15 13.939Z" fill="black"/>
<path d="M12.0716 18.3376C12.0519 18.3373 12.069 18.3372 12.1096 18.3372C12.1496 18.3372 12.0624 18.5814 11.9154 18.8797L11.8674 18.9768C11.7207 19.2751 11.382 19.5193 11.115 19.5193H10.6293H10.1439C9.87701 19.5193 9.5383 19.275 9.39125 18.9768L9.34331 18.8797C9.19625 18.5814 9.10947 18.3372 9.15018 18.3372C9.19116 18.3372 9.49664 18.3372 9.82921 18.3374L11.503 18.3377C11.8353 18.3377 12.0914 18.3376 12.0716 18.3376H12.0716Z" fill="black"/>
<path d="M10.4093 18.0755C10.024 18.0532 9.80372 17.929 9.60657 17.5552C9.40943 17.181 9.43313 17.0372 9.63202 16.5996L9.64421 16.6011C10.1084 16.6841 10.2392 16.7483 10.4341 17.1196C10.6319 17.4932 10.6093 17.7456 10.4092 18.0752" fill="black"/>
<path d="M10.8607 17.0099C10.689 17.0002 10.5908 16.9447 10.5031 16.7783C10.4153 16.6119 10.4258 16.5476 10.5146 16.3529L10.5197 16.3533C10.7265 16.3904 10.7849 16.4192 10.8713 16.5843C10.9591 16.7505 10.9491 16.8632 10.86 17.01" fill="black"/>
<path d="M11.0821 18.0756C10.9068 17.8603 10.8658 17.6826 10.9688 17.3962C11.0723 17.1098 11.1602 17.0529 11.4891 16.946L11.4938 16.9535C11.6754 17.2403 11.7042 17.341 11.6024 17.6246C11.4995 17.911 11.3541 18.0218 11.0821 18.0756Z" fill="black"/>
</svg>
