<svg width="19" height="19" viewBox="0 0 19 19" fill="none" xmlns="http://www.w3.org/2000/svg">
<path d="M0 0H19V19H0V0Z" fill="white" fill-opacity="0.01"/>
<path d="M11.9928 7.43311C11.9928 7.43311 10.7145 11.0361 10.1071 11.6651C9.49964 12.2941 8.49727 12.3116 7.86825 11.7042C7.23919 11.0967 7.2217 10.0944 7.82914 9.46535C8.43659 8.83633 11.9928 7.43311 11.9928 7.43311Z" fill="black" stroke="black" stroke-linejoin="round"/>
<path d="M15.3773 15.3778C16.8816 13.8736 17.812 11.7954 17.812 9.5C17.812 4.90913 14.0904 1.1875 9.49951 1.1875C4.90864 1.1875 1.18701 4.90913 1.18701 9.5C1.18701 11.7954 2.11742 13.8736 3.62169 15.3778" stroke="black" stroke-linecap="round" stroke-linejoin="round"/>
<path d="M9.5 1.58337V3.16671" stroke="black" stroke-linecap="round" stroke-linejoin="round"/>
<path d="M15.376 4.41028L14.1455 5.40667" stroke="black" stroke-linecap="round" stroke-linejoin="round"/>
<path d="M16.8323 10.7798L15.2896 10.4236" stroke="black" stroke-linecap="round" stroke-linejoin="round"/>
<path d="M2.16846 10.7798L3.71121 10.4236" stroke="black" stroke-linecap="round" stroke-linejoin="round"/>
<path d="M3.62402 4.41028L4.8545 5.40667" stroke="black" stroke-linecap="round" stroke-linejoin="round"/>
</svg>
