<svg width="25" height="25" viewBox="0 0 25 25" fill="none" xmlns="http://www.w3.org/2000/svg">
<path d="M4.43287 10.5185H12.1101C13.0389 10.5252 13.9376 10.1887 14.6335 9.57342C15.3294 8.95817 15.7736 8.10757 15.8809 7.18495C15.9843 6.14873 15.6409 5.11749 14.9367 4.35021C14.2376 3.58265 13.248 3.14445 12.2098 3.1427H10.1382C9.80496 3.1427 9.49707 3.32056 9.33044 3.60905C9.16383 3.89767 9.16383 4.25325 9.33044 4.54186C9.49705 4.83035 9.80496 5.00822 10.1382 5.00822H12.2098C12.7348 5.00889 13.2341 5.2359 13.58 5.63085C13.9258 6.02582 14.0849 6.55066 14.0164 7.07126C13.9477 7.5179 13.7192 7.92439 13.3732 8.21513C13.0274 8.50602 12.5878 8.66125 12.136 8.65227H4.4327C4.09948 8.65227 3.79159 8.82999 3.62496 9.11863C3.45834 9.40726 3.45836 9.76268 3.62496 10.0513C3.79157 10.3399 4.09948 10.5177 4.4327 10.5177L4.43287 10.5185Z" fill="black"/>
<path d="M21.4837 16.6722C21.3765 15.7496 20.9324 14.8991 20.2366 14.284C19.5407 13.6687 18.6423 13.332 17.7135 13.3386H11.3004C10.9672 13.3386 10.6593 13.5163 10.4926 13.8049C10.326 14.0936 10.326 14.4491 10.4926 14.7376C10.6592 15.0262 10.9671 15.204 11.3004 15.204H17.7389C18.1906 15.195 18.6303 15.3504 18.9761 15.6411C19.3221 15.932 19.5505 16.3385 19.6192 16.785C19.6878 17.3056 19.5288 17.8304 19.1829 18.2254C18.837 18.6205 18.3377 18.8474 17.8127 18.8482H15.7403C15.407 18.8482 15.0992 19.0259 14.9325 19.3145C14.7659 19.603 14.7659 19.9586 14.9325 20.2472C15.0991 20.5358 15.407 20.7135 15.7403 20.7135H17.8117C18.8504 20.7126 19.8408 20.2746 20.5403 19.507C21.2442 18.7396 21.5873 17.7083 21.4835 16.6723L21.4837 16.6722Z" fill="black"/>
<path d="M9.24479 14.2721C9.24466 14.0246 9.14635 13.7874 8.97157 13.6124C8.79666 13.4373 8.55946 13.3388 8.31212 13.3385H4.43269C4.09948 13.3385 3.79158 13.5162 3.62496 13.8049C3.45835 14.0935 3.45835 14.449 3.62496 14.7375C3.79156 15.0261 4.09947 15.2039 4.43269 15.2039H8.31212C8.55922 15.2036 8.79613 15.1053 8.97092 14.9307C9.14571 14.756 9.24427 14.5192 9.24481 14.2721L9.24479 14.2721Z" fill="black"/>
<path d="M16.2052 11.121C16.2848 11.121 16.3611 11.0894 16.4173 11.0331L17.0495 10.401H17.0494C17.9182 10.5732 18.8143 10.2842 19.4188 9.63689C20.0234 8.98961 20.2505 8.07596 20.0194 7.22094C19.9918 7.11702 19.9106 7.03586 19.8067 7.00827C18.9517 6.77724 18.038 7.00438 17.3907 7.60882C16.7435 8.21338 16.4544 9.10951 16.6267 9.97827L15.9931 10.6085C15.9074 10.6944 15.8817 10.8234 15.9281 10.9355C15.9746 11.0476 16.0839 11.1206 16.2052 11.1207L16.2052 11.121Z" fill="black"/>
<path d="M9.7314 16.4671L9.09923 15.8349C8.98151 15.7212 8.79441 15.7229 8.67868 15.8387C8.56295 15.9544 8.56135 16.1415 8.67506 16.2592L9.30682 16.8914V16.8912C9.14409 17.7279 9.40579 18.5907 10.0058 19.1959C10.6298 19.8133 12.0245 20.3377 12.6998 19.6459H12.6999C12.9307 18.7912 12.7037 17.8779 12.0996 17.2308C11.4955 16.5835 10.5999 16.2943 9.73138 16.4659L9.7314 16.4671Z" fill="black"/>
</svg>
